<?xml version="1.0" encoding="UTF-8" standalone="no"?>
<!DOCTYPE svg PUBLIC "-//W3C//DTD SVG 1.1//EN"
 "http://www.w3.org/Graphics/SVG/1.1/DTD/svg11.dtd">
<!-- Generated by graphviz version 2.44.1 (20210815.0857)
 -->
<!-- Title: graph_1 Pages: 1 -->
<svg width="690pt" height="392pt"
 viewBox="0.00 0.00 690.45 392.00" xmlns="http://www.w3.org/2000/svg" xmlns:xlink="http://www.w3.org/1999/xlink">
<g id="graph0" class="graph" transform="scale(1 1) rotate(0) translate(4 388)">
<title>graph_1</title>
<polygon fill="white" stroke="transparent" points="-4,4 -4,-388 686.45,-388 686.45,4 -4,4"/>
<!-- g1_0 -->
<g id="node1" class="node">
<title>g1_0</title>
<ellipse fill="none" stroke="black" cx="121.45" cy="-366" rx="28.7" ry="18"/>
<text text-anchor="middle" x="121.45" y="-362.3" font-family="Times New Roman,serif" font-size="14.00">g1_0</text>
</g>
<!-- g1_1 -->
<g id="node2" class="node">
<title>g1_1</title>
<ellipse fill="none" stroke="black" cx="74.45" cy="-279" rx="28.7" ry="18"/>
<text text-anchor="middle" x="74.45" y="-275.3" font-family="Times New Roman,serif" font-size="14.00">g1_1</text>
</g>
<!-- g1_0&#45;&gt;g1_1 -->
<g id="edge1" class="edge">
<title>g1_0&#45;&gt;g1_1</title>
<path fill="none" stroke="black" d="M101.4,-352.69C93.57,-346.81 85.31,-339.07 80.45,-330 76.76,-323.11 74.92,-314.94 74.08,-307.22"/>
<polygon fill="black" stroke="black" points="77.57,-306.91 73.48,-297.13 70.58,-307.32 77.57,-306.91"/>
<text text-anchor="middle" x="83.95" y="-318.8" font-family="Times New Roman,serif" font-size="14.00">5</text>
</g>
<!-- g1_2 -->
<g id="node3" class="node">
<title>g1_2</title>
<ellipse fill="none" stroke="black" cx="91.45" cy="-105" rx="28.7" ry="18"/>
<text text-anchor="middle" x="91.45" y="-101.3" font-family="Times New Roman,serif" font-size="14.00">g1_2</text>
</g>
<!-- g1_0&#45;&gt;g1_2 -->
<g id="edge2" class="edge">
<title>g1_0&#45;&gt;g1_2</title>
<path fill="none" stroke="black" d="M100.93,-352.88C71.43,-333.94 19.08,-294.11 5.45,-243 -6.69,-197.46 2.4,-175.55 34.45,-141 41.68,-133.21 51.02,-126.52 60.04,-121.13"/>
<polygon fill="black" stroke="black" points="61.85,-124.13 68.87,-116.19 58.44,-118.02 61.85,-124.13"/>
<text text-anchor="middle" x="12.45" y="-231.8" font-family="Times New Roman,serif" font-size="14.00">30</text>
</g>
<!-- g1_3 -->
<g id="node4" class="node">
<title>g1_3</title>
<ellipse fill="none" stroke="black" cx="178.45" cy="-192" rx="28.7" ry="18"/>
<text text-anchor="middle" x="178.45" y="-188.3" font-family="Times New Roman,serif" font-size="14.00">g1_3</text>
</g>
<!-- g1_0&#45;&gt;g1_3 -->
<g id="edge3" class="edge">
<title>g1_0&#45;&gt;g1_3</title>
<path fill="none" stroke="black" d="M134.3,-349.78C138.71,-343.91 143.31,-336.94 146.45,-330 162.79,-293.89 171.27,-248.51 175.3,-220.13"/>
<polygon fill="black" stroke="black" points="178.78,-220.51 176.63,-210.13 171.84,-219.58 178.78,-220.51"/>
<text text-anchor="middle" x="171.95" y="-275.3" font-family="Times New Roman,serif" font-size="14.00">7</text>
</g>
<!-- g1_1&#45;&gt;g1_0 -->
<g id="edge4" class="edge">
<title>g1_1&#45;&gt;g1_0</title>
<path fill="none" stroke="black" d="M83.49,-296.34C90.24,-308.56 99.61,-325.49 107.35,-339.49"/>
<polygon fill="black" stroke="black" points="104.49,-341.55 112.39,-348.61 110.62,-338.17 104.49,-341.55"/>
<text text-anchor="middle" x="104.95" y="-318.8" font-family="Times New Roman,serif" font-size="14.00">1</text>
</g>
<!-- g1_1&#45;&gt;g1_2 -->
<g id="edge5" class="edge">
<title>g1_1&#45;&gt;g1_2</title>
<path fill="none" stroke="black" d="M52.85,-267C43.88,-261.18 34.41,-253.14 29.45,-243 15.98,-215.45 20.57,-203.35 29.45,-174 35.37,-154.44 50.85,-137.46 64.86,-125.35"/>
<polygon fill="black" stroke="black" points="67.34,-127.85 72.86,-118.8 62.9,-122.43 67.34,-127.85"/>
<text text-anchor="middle" x="36.45" y="-188.3" font-family="Times New Roman,serif" font-size="14.00">10</text>
</g>
<!-- g1_1&#45;&gt;g1_3 -->
<g id="edge6" class="edge">
<title>g1_1&#45;&gt;g1_3</title>
<path fill="none" stroke="black" d="M82.05,-261.48C87.6,-250.84 95.98,-237.32 106.45,-228 117.29,-218.36 131.27,-210.76 144.01,-205.14"/>
<polygon fill="black" stroke="black" points="145.55,-208.29 153.45,-201.23 142.87,-201.83 145.55,-208.29"/>
<text text-anchor="middle" x="109.95" y="-231.8" font-family="Times New Roman,serif" font-size="14.00">7</text>
</g>
<!-- g1_2&#45;&gt;g1_0 -->
<g id="edge7" class="edge">
<title>g1_2&#45;&gt;g1_0</title>
<path fill="none" stroke="black" d="M94.72,-122.91C99.14,-146.39 106.99,-190.27 111.45,-228 115.93,-265.84 118.71,-309.82 120.17,-337.53"/>
<polygon fill="black" stroke="black" points="116.68,-337.84 120.69,-347.65 123.68,-337.49 116.68,-337.84"/>
<text text-anchor="middle" x="116.95" y="-231.8" font-family="Times New Roman,serif" font-size="14.00">3</text>
</g>
<!-- g1_2&#45;&gt;g1_1 -->
<g id="edge8" class="edge">
<title>g1_2&#45;&gt;g1_1</title>
<path fill="none" stroke="black" d="M87.2,-123.2C81.22,-149.06 71.21,-199.56 72.45,-243 72.53,-245.56 72.63,-248.21 72.75,-250.87"/>
<polygon fill="black" stroke="black" points="69.26,-251.12 73.28,-260.92 76.25,-250.75 69.26,-251.12"/>
<text text-anchor="middle" x="81.95" y="-188.3" font-family="Times New Roman,serif" font-size="14.00">1</text>
</g>
<!-- g1_2&#45;&gt;g1_3 -->
<g id="edge9" class="edge">
<title>g1_2&#45;&gt;g1_3</title>
<path fill="none" stroke="black" d="M115.92,-114.6C129.33,-120.34 145.41,-129.04 156.45,-141 162.58,-147.64 167.2,-156.26 170.58,-164.47"/>
<polygon fill="black" stroke="black" points="167.38,-165.93 174.1,-174.12 173.96,-163.52 167.38,-165.93"/>
<text text-anchor="middle" x="170.95" y="-144.8" font-family="Times New Roman,serif" font-size="14.00">6</text>
</g>
<!-- g1_3&#45;&gt;g1_0 -->
<g id="edge10" class="edge">
<title>g1_3&#45;&gt;g1_0</title>
<path fill="none" stroke="black" d="M183.72,-209.92C185.24,-215.61 186.7,-222.02 187.45,-228 191.33,-258.63 188.55,-267.5 179.45,-297 174.65,-312.58 173.5,-317.16 163.45,-330 159.05,-335.63 153.61,-340.97 148.12,-345.71"/>
<polygon fill="black" stroke="black" points="145.71,-343.16 140.15,-352.18 150.12,-348.59 145.71,-343.16"/>
<text text-anchor="middle" x="192.95" y="-275.3" font-family="Times New Roman,serif" font-size="14.00">8</text>
</g>
<!-- g1_3&#45;&gt;g1_1 -->
<g id="edge11" class="edge">
<title>g1_3&#45;&gt;g1_1</title>
<path fill="none" stroke="black" d="M150.48,-195.87C128.92,-199.6 100.06,-208.2 83.45,-228 78.17,-234.3 75.54,-242.63 74.34,-250.69"/>
<polygon fill="black" stroke="black" points="70.82,-250.66 73.46,-260.93 77.8,-251.26 70.82,-250.66"/>
<text text-anchor="middle" x="86.95" y="-231.8" font-family="Times New Roman,serif" font-size="14.00">2</text>
</g>
<!-- g1_3&#45;&gt;g1_2 -->
<g id="edge12" class="edge">
<title>g1_3&#45;&gt;g1_2</title>
<path fill="none" stroke="black" d="M163.69,-176.58C149.95,-163.15 129.26,-142.94 113.55,-127.59"/>
<polygon fill="black" stroke="black" points="115.88,-124.97 106.28,-120.49 110.99,-129.98 115.88,-124.97"/>
<text text-anchor="middle" x="143.95" y="-144.8" font-family="Times New Roman,serif" font-size="14.00">6</text>
</g>
<!-- g1_4 -->
<g id="node5" class="node">
<title>g1_4</title>
<ellipse fill="none" stroke="black" cx="223.45" cy="-105" rx="28.7" ry="18"/>
<text text-anchor="middle" x="223.45" y="-101.3" font-family="Times New Roman,serif" font-size="14.00">g1_4</text>
</g>
<!-- g1_3&#45;&gt;g1_4 -->
<g id="edge13" class="edge">
<title>g1_3&#45;&gt;g1_4</title>
<path fill="none" stroke="black" d="M187.13,-174.61C193.6,-162.38 202.57,-145.44 209.98,-131.46"/>
<polygon fill="black" stroke="black" points="213.22,-132.81 214.8,-122.34 207.03,-129.54 213.22,-132.81"/>
<text text-anchor="middle" x="207.95" y="-144.8" font-family="Times New Roman,serif" font-size="14.00">1</text>
</g>
<!-- g1_4&#45;&gt;g1_3 -->
<g id="edge14" class="edge">
<title>g1_4&#45;&gt;g1_3</title>
<path fill="none" stroke="black" d="M223.43,-123.07C222.77,-133.16 220.79,-145.89 215.45,-156 212.6,-161.41 208.58,-166.45 204.24,-170.93"/>
<polygon fill="black" stroke="black" points="201.7,-168.51 196.78,-177.9 206.48,-173.63 201.7,-168.51"/>
<text text-anchor="middle" x="224.95" y="-144.8" font-family="Times New Roman,serif" font-size="14.00">1</text>
</g>
<!-- g2_0 -->
<g id="node6" class="node">
<title>g2_0</title>
<ellipse fill="none" stroke="black" cx="436.45" cy="-366" rx="28.7" ry="18"/>
<text text-anchor="middle" x="436.45" y="-362.3" font-family="Times New Roman,serif" font-size="14.00">g2_0</text>
</g>
<!-- g2_1 -->
<g id="node7" class="node">
<title>g2_1</title>
<ellipse fill="none" stroke="black" cx="486.45" cy="-279" rx="28.7" ry="18"/>
<text text-anchor="middle" x="486.45" y="-275.3" font-family="Times New Roman,serif" font-size="14.00">g2_1</text>
</g>
<!-- g2_0&#45;&gt;g2_1 -->
<g id="edge15" class="edge">
<title>g2_0&#45;&gt;g2_1</title>
<path fill="none" stroke="black" d="M441.64,-348.14C445.1,-338.13 450.16,-325.4 456.45,-315 459.01,-310.77 462.08,-306.55 465.27,-302.57"/>
<polygon fill="black" stroke="black" points="468.04,-304.72 471.84,-294.83 462.7,-300.19 468.04,-304.72"/>
<text text-anchor="middle" x="459.95" y="-318.8" font-family="Times New Roman,serif" font-size="14.00">5</text>
</g>
<!-- g2_2 -->
<g id="node8" class="node">
<title>g2_2</title>
<ellipse fill="none" stroke="black" cx="435.45" cy="-18" rx="28.7" ry="18"/>
<text text-anchor="middle" x="435.45" y="-14.3" font-family="Times New Roman,serif" font-size="14.00">g2_2</text>
</g>
<!-- g2_0&#45;&gt;g2_2 -->
<g id="edge16" class="edge">
<title>g2_0&#45;&gt;g2_2</title>
<path fill="none" stroke="black" d="M408.2,-362.33C363.25,-356.34 280.45,-337.52 280.45,-280 280.45,-280 280.45,-280 280.45,-104 280.45,-50.79 351.56,-30.66 397.45,-23.22"/>
<polygon fill="black" stroke="black" points="398.01,-26.67 407.38,-21.74 396.98,-19.75 398.01,-26.67"/>
<text text-anchor="middle" x="287.45" y="-188.3" font-family="Times New Roman,serif" font-size="14.00">13</text>
</g>
<!-- g2_3 -->
<g id="node9" class="node">
<title>g2_3</title>
<ellipse fill="none" stroke="black" cx="485.45" cy="-105" rx="28.7" ry="18"/>
<text text-anchor="middle" x="485.45" y="-101.3" font-family="Times New Roman,serif" font-size="14.00">g2_3</text>
</g>
<!-- g2_0&#45;&gt;g2_3 -->
<g id="edge17" class="edge">
<title>g2_0&#45;&gt;g2_3</title>
<path fill="none" stroke="black" d="M465.18,-364.33C515.18,-362.5 614.91,-355.64 636.45,-330 690.5,-265.68 688.51,-204.46 633.45,-141 619.28,-124.66 562.61,-114.9 523.66,-109.99"/>
<polygon fill="black" stroke="black" points="524.03,-106.51 513.69,-108.79 523.2,-113.46 524.03,-106.51"/>
<text text-anchor="middle" x="678.95" y="-231.8" font-family="Times New Roman,serif" font-size="14.00">7</text>
</g>
<!-- g2_4 -->
<g id="node10" class="node">
<title>g2_4</title>
<ellipse fill="none" stroke="black" cx="402.45" cy="-192" rx="28.7" ry="18"/>
<text text-anchor="middle" x="402.45" y="-188.3" font-family="Times New Roman,serif" font-size="14.00">g2_4</text>
</g>
<!-- g2_0&#45;&gt;g2_4 -->
<g id="edge18" class="edge">
<title>g2_0&#45;&gt;g2_4</title>
<path fill="none" stroke="black" d="M421.82,-350.47C416.26,-344.46 410.14,-337.22 405.45,-330 396.68,-316.49 393.86,-312.75 390.45,-297 383.96,-267.03 385.41,-258.25 390.45,-228 390.91,-225.24 391.56,-222.41 392.32,-219.61"/>
<polygon fill="black" stroke="black" points="395.75,-220.39 395.44,-209.8 389.08,-218.27 395.75,-220.39"/>
<text text-anchor="middle" x="393.95" y="-275.3" font-family="Times New Roman,serif" font-size="14.00">8</text>
</g>
<!-- g2_1&#45;&gt;g2_0 -->
<g id="edge19" class="edge">
<title>g2_1&#45;&gt;g2_0</title>
<path fill="none" stroke="black" d="M479.44,-296.63C475.01,-306.56 468.92,-319.28 462.45,-330 460.21,-333.72 457.66,-337.53 455.07,-341.2"/>
<polygon fill="black" stroke="black" points="452.13,-339.29 449.03,-349.42 457.77,-343.43 452.13,-339.29"/>
<text text-anchor="middle" x="474.95" y="-318.8" font-family="Times New Roman,serif" font-size="14.00">1</text>
</g>
<!-- g2_1&#45;&gt;g2_2 -->
<g id="edge20" class="edge">
<title>g2_1&#45;&gt;g2_2</title>
<path fill="none" stroke="black" d="M509.15,-267.62C530.62,-257.74 559.69,-244.21 560.45,-243 605.39,-172.03 611.21,-120.93 560.45,-54 549.89,-40.07 506.19,-30.16 473.41,-24.52"/>
<polygon fill="black" stroke="black" points="473.65,-21.02 463.21,-22.84 472.51,-27.92 473.65,-21.02"/>
<text text-anchor="middle" x="602.45" y="-144.8" font-family="Times New Roman,serif" font-size="14.00">10</text>
</g>
<!-- g2_1&#45;&gt;g2_3 -->
<g id="edge21" class="edge">
<title>g2_1&#45;&gt;g2_3</title>
<path fill="none" stroke="black" d="M485.17,-260.97C484.21,-247.22 482.96,-227.38 482.45,-210 481.69,-184.02 482.73,-154.38 483.79,-133.41"/>
<polygon fill="black" stroke="black" points="487.29,-133.47 484.34,-123.3 480.3,-133.09 487.29,-133.47"/>
<text text-anchor="middle" x="485.95" y="-188.3" font-family="Times New Roman,serif" font-size="14.00">7</text>
</g>
<!-- g2_1&#45;&gt;g2_4 -->
<g id="edge22" class="edge">
<title>g2_1&#45;&gt;g2_4</title>
<path fill="none" stroke="black" d="M473.85,-262.66C465.31,-252.52 453.59,-239.1 442.45,-228 437.65,-223.21 432.31,-218.29 427.13,-213.7"/>
<polygon fill="black" stroke="black" points="429.08,-210.76 419.24,-206.84 424.49,-216.04 429.08,-210.76"/>
<text text-anchor="middle" x="459.95" y="-231.8" font-family="Times New Roman,serif" font-size="14.00">8</text>
</g>
<!-- g2_2&#45;&gt;g2_0 -->
<g id="edge23" class="edge">
<title>g2_2&#45;&gt;g2_0</title>
<path fill="none" stroke="black" d="M410.3,-26.92C379.24,-38.45 330.45,-63.07 330.45,-104 330.45,-280 330.45,-280 330.45,-280 330.45,-317.25 370.78,-340.89 401.69,-353.53"/>
<polygon fill="black" stroke="black" points="400.74,-356.92 411.33,-357.25 403.26,-350.39 400.74,-356.92"/>
<text text-anchor="middle" x="333.95" y="-188.3" font-family="Times New Roman,serif" font-size="14.00">2</text>
</g>
<!-- g2_2&#45;&gt;g2_1 -->
<g id="edge24" class="edge">
<title>g2_2&#45;&gt;g2_1</title>
<path fill="none" stroke="black" d="M458.41,-29.2C479.72,-40.09 510.12,-59.56 523.45,-87 553.82,-149.49 538.58,-178.23 513.45,-243 511.86,-247.1 509.63,-251.13 507.12,-254.9"/>
<polygon fill="black" stroke="black" points="504.12,-253.06 500.94,-263.16 509.73,-257.25 504.12,-253.06"/>
<text text-anchor="middle" x="542.95" y="-144.8" font-family="Times New Roman,serif" font-size="14.00">1</text>
</g>
<!-- g2_2&#45;&gt;g2_3 -->
<g id="edge25" class="edge">
<title>g2_2&#45;&gt;g2_3</title>
<path fill="none" stroke="black" d="M441.1,-35.81C444.79,-45.8 450.11,-58.53 456.45,-69 458.98,-73.17 461.97,-77.36 465.06,-81.33"/>
<polygon fill="black" stroke="black" points="462.37,-83.56 471.42,-89.06 467.77,-79.11 462.37,-83.56"/>
<text text-anchor="middle" x="459.95" y="-57.8" font-family="Times New Roman,serif" font-size="14.00">6</text>
</g>
<!-- g2_2&#45;&gt;g2_4 -->
<g id="edge26" class="edge">
<title>g2_2&#45;&gt;g2_4</title>
<path fill="none" stroke="black" d="M432.18,-36.05C426.46,-65.88 414.59,-127.76 407.7,-163.64"/>
<polygon fill="black" stroke="black" points="404.19,-163.4 405.74,-173.88 411.06,-164.72 404.19,-163.4"/>
<text text-anchor="middle" x="425.95" y="-101.3" font-family="Times New Roman,serif" font-size="14.00">7</text>
</g>
<!-- g2_3&#45;&gt;g2_0 -->
<g id="edge27" class="edge">
<title>g2_3&#45;&gt;g2_0</title>
<path fill="none" stroke="black" d="M512.37,-111.74C528.34,-116.66 547.38,-125.5 557.45,-141 599.59,-205.82 568.44,-216.62 560.45,-243 545.92,-291.01 498.04,-328.08 466.21,-348.19"/>
<polygon fill="black" stroke="black" points="464,-345.44 457.3,-353.65 467.65,-351.41 464,-345.44"/>
<text text-anchor="middle" x="569.95" y="-231.8" font-family="Times New Roman,serif" font-size="14.00">3</text>
</g>
<!-- g2_3&#45;&gt;g2_1 -->
<g id="edge28" class="edge">
<title>g2_3&#45;&gt;g2_1</title>
<path fill="none" stroke="black" d="M492.47,-122.8C494.5,-128.47 496.44,-134.92 497.45,-141 504.91,-185.72 504.33,-198.19 497.45,-243 497.03,-245.74 496.44,-248.56 495.74,-251.35"/>
<polygon fill="black" stroke="black" points="492.32,-250.58 492.89,-261.16 499.04,-252.53 492.32,-250.58"/>
<text text-anchor="middle" x="506.95" y="-188.3" font-family="Times New Roman,serif" font-size="14.00">2</text>
</g>
<!-- g2_3&#45;&gt;g2_2 -->
<g id="edge29" class="edge">
<title>g2_3&#45;&gt;g2_2</title>
<path fill="none" stroke="black" d="M478.44,-87.37C474.01,-77.44 467.92,-64.72 461.45,-54 459.21,-50.28 456.66,-46.47 454.07,-42.8"/>
<polygon fill="black" stroke="black" points="456.77,-40.57 448.03,-34.58 451.13,-44.71 456.77,-40.57"/>
<text text-anchor="middle" x="473.95" y="-57.8" font-family="Times New Roman,serif" font-size="14.00">6</text>
</g>
<!-- g2_3&#45;&gt;g2_4 -->
<g id="edge30" class="edge">
<title>g2_3&#45;&gt;g2_4</title>
<path fill="none" stroke="black" d="M473.19,-121.37C464.87,-131.52 453.42,-144.94 442.45,-156 437.68,-160.82 432.35,-165.75 427.17,-170.34"/>
<polygon fill="black" stroke="black" points="424.53,-168 419.28,-177.2 429.12,-173.29 424.53,-168"/>
<text text-anchor="middle" x="459.95" y="-144.8" font-family="Times New Roman,serif" font-size="14.00">1</text>
</g>
<!-- g2_4&#45;&gt;g2_0 -->
<g id="edge31" class="edge">
<title>g2_4&#45;&gt;g2_0</title>
<path fill="none" stroke="black" d="M405.82,-210.05C411.72,-239.88 423.95,-301.76 431.05,-337.64"/>
<polygon fill="black" stroke="black" points="427.7,-338.75 433.07,-347.88 434.56,-337.39 427.7,-338.75"/>
<text text-anchor="middle" x="426.95" y="-275.3" font-family="Times New Roman,serif" font-size="14.00">4</text>
</g>
<!-- g2_4&#45;&gt;g2_1 -->
<g id="edge32" class="edge">
<title>g2_4&#45;&gt;g2_1</title>
<path fill="none" stroke="black" d="M411.92,-209.37C418.34,-219.69 427.46,-232.91 437.45,-243 443.45,-249.06 450.6,-254.81 457.56,-259.83"/>
<polygon fill="black" stroke="black" points="455.96,-262.98 466.17,-265.78 459.93,-257.22 455.96,-262.98"/>
<text text-anchor="middle" x="440.95" y="-231.8" font-family="Times New Roman,serif" font-size="14.00">3</text>
</g>
<!-- g2_4&#45;&gt;g2_2 -->
<g id="edge33" class="edge">
<title>g2_4&#45;&gt;g2_2</title>
<path fill="none" stroke="black" d="M400.95,-173.82C399.58,-152.99 398.69,-116.95 405.45,-87 408.81,-72.16 415.44,-56.56 421.61,-44.05"/>
<polygon fill="black" stroke="black" points="424.73,-45.64 426.19,-35.15 418.5,-42.44 424.73,-45.64"/>
<text text-anchor="middle" x="408.95" y="-101.3" font-family="Times New Roman,serif" font-size="14.00">7</text>
</g>
<!-- g2_4&#45;&gt;g2_3 -->
<g id="edge34" class="edge">
<title>g2_4&#45;&gt;g2_3</title>
<path fill="none" stroke="black" d="M411.95,-174.66C418.39,-164.36 427.51,-151.14 437.45,-141 443.34,-134.99 450.35,-129.26 457.17,-124.24"/>
<polygon fill="black" stroke="black" points="459.45,-126.92 465.6,-118.29 455.42,-121.2 459.45,-126.92"/>
<text text-anchor="middle" x="440.95" y="-144.8" font-family="Times New Roman,serif" font-size="14.00">1</text>
</g>
</g>
</svg>
